# Blender v2.63 (sub 0) OBJ File: 'bottle_liquor_high2.blend'
# www.blender.org
mtllib bottle_liquor_low.mtl
o liquor_bottle_Circle.002
v -0.000000 -0.273503 -0.000000
v -0.000000 -0.273503 -1.328053
v -1.150128 -0.273503 -0.664027
v -1.150128 -0.273503 0.664027
v 0.000000 -0.273503 1.328053
v 1.150128 -0.273503 0.664027
v 1.150128 -0.273503 -0.664027
v -0.000000 6.971231 -1.357579
v -1.175699 6.971231 -0.678790
v -1.175698 6.971231 0.678790
v 0.000000 6.971231 1.357579
v 1.175698 6.971231 0.678790
v 1.175698 6.971231 -0.678790
v -0.000000 7.490864 -0.979811
v -0.848541 7.490864 -0.489905
v -0.848541 7.490864 0.489906
v 0.000000 7.490864 0.979811
v 0.848541 7.490864 0.489905
v 0.848541 7.490864 -0.489905
v -0.000000 7.637798 -0.492191
v -0.426250 7.637798 -0.246095
v -0.426250 7.637798 0.246095
v 0.000000 7.637798 0.492191
v 0.426250 7.637798 0.246095
v 0.426250 7.637798 -0.246095
v -0.000000 9.214060 -0.389001
v -0.336885 9.214060 -0.194501
v -0.336885 9.214060 0.194501
v -0.000000 9.214060 0.389001
v 0.336885 9.214060 0.194501
v 0.336885 9.214060 -0.194501
v -0.000000 9.238240 -0.429611
v -0.372054 9.238240 -0.214805
v -0.372054 9.238240 0.214806
v 0.000000 9.238240 0.429611
v 0.372054 9.238240 0.214805
v 0.372054 9.238240 -0.214805
v -0.000000 9.658240 -0.429611
v -0.372054 9.658240 -0.214805
v -0.372054 9.658240 0.214806
v 0.000000 9.658240 0.429611
v 0.372054 9.658240 0.214805
v 0.372054 9.658240 -0.214805
v -0.000000 9.658240 0.000000
v 1.150128 0.025337 0.664027
v 1.150128 0.025337 -0.664027
v -1.150128 0.025337 0.664027
v 0.000000 0.025337 1.328053
v -0.000000 0.025337 -1.328053
v -1.150128 0.025337 -0.664027
v -1.150128 6.045137 -0.664027
v -0.000000 6.045137 -1.328053
v 0.000000 6.045137 1.328053
v 1.150128 6.045137 -0.664027
v -1.150128 6.045137 0.664027
v 1.150128 6.045137 0.664027
v -0.575064 -0.273503 0.996040
v -0.587849 6.971231 1.018185
v -0.424271 7.490864 0.734858
v -0.213125 7.637798 0.369143
v -0.214794 9.214060 0.372035
v -0.237218 9.238240 0.410873
v -0.237218 9.658240 0.410873
v -0.575064 0.025337 0.996040
v -0.575064 6.777674 0.996040
v -0.214794 9.214060 -0.372035
v -0.237218 9.238240 -0.410873
v -0.237218 9.658240 -0.410873
v 0.213125 7.637798 -0.369143
v 0.424270 7.490864 -0.734858
v 0.587849 6.971231 -1.018185
v 0.575064 -0.273503 -0.996040
v -0.575064 0.025337 -0.996040
v -0.575064 6.777674 -0.996040
v -0.575064 -0.273503 -0.996040
v -0.587849 6.971231 -1.018185
v -0.424271 7.490864 -0.734858
v -0.213125 7.637798 -0.369143
v 0.213125 7.637798 0.369143
v 0.424271 7.490864 0.734858
v 0.587849 6.971231 1.018185
v 0.575064 -0.273503 0.996040
v 0.429589 9.214060 0.000000
v 0.474435 9.238240 0.000000
v 0.474435 9.658240 0.000000
v -1.150128 6.777674 0.000000
v -1.150128 0.025337 0.000000
v -0.474435 9.658240 0.000000
v -0.429589 9.214060 0.000000
v 0.214794 9.214060 0.372035
v 0.237218 9.658240 0.410873
v 0.237218 9.238240 0.410873
v 0.214794 9.214060 -0.372035
v 0.237218 9.658240 -0.410873
v 0.237218 9.238240 -0.410873
v 0.575064 6.777674 -0.996040
v 0.575064 0.025337 -0.996040
v 1.150128 0.025337 -0.000000
v 1.150128 6.777674 -0.000000
v 0.575064 6.777674 0.996040
v 0.575064 0.025337 0.996040
v 0.426250 7.637798 0.000000
v 0.848541 7.490864 -0.000000
v 1.175698 6.971231 -0.000000
v 1.150128 -0.273503 -0.000000
v -0.474435 9.238240 0.000000
v -1.150128 -0.273503 0.000000
v -1.175698 6.971231 0.000000
v -0.848541 7.490864 0.000000
v -0.426250 7.637798 0.000000
v -1.150128 4.841177 -0.664027
v -1.150128 3.637217 -0.664027
v -1.150128 2.433257 -0.664027
v -1.150128 1.229297 -0.664027
v -0.000000 4.841177 -1.328053
v -0.000000 3.637217 -1.328053
v -0.000000 2.433257 -1.328053
v -0.000000 1.229297 -1.328053
v 0.000000 4.841177 1.328053
v 0.000000 3.637217 1.328053
v 0.000000 2.433257 1.328053
v 0.000000 1.229297 1.328053
v -1.150128 4.841177 0.664027
v -1.150128 3.637217 0.664027
v -1.150128 2.433257 0.664027
v -1.150128 1.229297 0.664027
v 1.150128 4.841177 0.664027
v 1.150128 3.637217 0.664027
v 1.150128 2.433257 0.664027
v 1.150128 1.229297 0.664027
v 1.150128 4.841177 -0.664027
v 1.150128 3.637217 -0.664027
v 1.150128 2.433257 -0.664027
v 1.150128 1.229297 -0.664027
v -0.575064 1.375804 0.996040
v -0.575064 2.726272 0.996040
v -0.575064 4.076740 0.996040
v -0.575064 5.427207 0.996040
v -1.150128 1.375804 0.000000
v -1.150128 2.726272 0.000000
v -1.150128 4.076740 0.000000
v -1.150128 5.427207 0.000000
v 0.575064 1.375804 0.996040
v 0.575064 2.726272 0.996040
v 0.575064 4.076740 0.996040
v 0.575064 5.427207 0.996040
v 0.575064 5.427207 -0.996040
v 0.575064 4.076739 -0.996040
v 0.575064 2.726272 -0.996040
v 0.575064 1.375804 -0.996040
v 1.150128 1.375804 -0.000000
v 1.150128 2.726272 -0.000000
v 1.150128 4.076740 -0.000000
v 1.150128 5.427207 -0.000000
v -0.575064 1.375804 -0.996040
v -0.575064 2.726272 -0.996040
v -0.575064 4.076740 -0.996040
v -0.575064 5.427207 -0.996040
vn 0.000000 -1.000000 0.000000
vn 0.998668 -0.045289 -0.024706
vn -0.477938 -0.045289 0.877225
vn 0.500000 0.000000 -0.866025
vn 0.520730 -0.045289 0.852519
vn -0.520730 -0.045289 -0.852519
vn -0.998668 -0.045289 0.024706
vn 0.423124 0.532791 0.732871
vn -0.423123 0.532791 0.732871
vn 0.423124 0.532791 -0.732871
vn -0.846247 0.532791 0.000000
vn 0.846247 0.532791 0.000000
vn -0.423124 0.532791 -0.732871
vn 0.310835 0.030059 -0.949989
vn 0.040379 -0.858517 -0.511192
vn 0.462895 -0.858517 0.220627
vn -0.040379 -0.858517 -0.511192
vn -0.422516 -0.858517 0.290566
vn -0.000000 1.000000 0.000000
vn 0.422516 -0.858517 -0.290566
vn 0.978132 0.030059 -0.205804
vn 0.667297 0.030059 -0.744185
vn 0.040379 -0.858517 0.511192
vn -0.462895 -0.858517 -0.220627
vn -0.667297 0.030059 0.744185
vn 1.000000 0.000000 0.000000
vn -0.500000 0.000000 0.866025
vn 0.500000 0.000000 0.866025
vn -0.500000 0.000000 -0.866025
vn -1.000000 0.000000 0.000000
vn 0.520730 -0.045289 -0.852519
vn -0.520730 -0.045289 0.852519
vn -0.978131 0.030059 0.205804
vn -0.040379 -0.858517 0.511192
vn 0.423123 0.532791 -0.732871
vn -0.978132 0.030059 -0.205804
vn 0.477938 -0.045289 0.877225
vn 0.310835 0.030059 0.949989
vn 0.422516 -0.858517 0.290565
vn -0.462895 -0.858517 0.220627
vn 0.978132 0.030059 0.205804
vn 0.462895 -0.858517 -0.220627
vn 0.477938 -0.045289 -0.877225
vn 0.998668 -0.045289 0.024706
vn -0.310835 0.030059 -0.949989
vn -0.667297 0.030059 -0.744185
vn -0.310834 0.030059 0.949989
vn -0.477938 -0.045289 -0.877225
vn -0.422516 -0.858517 -0.290566
vn -0.423123 0.532791 -0.732871
vn -0.998668 -0.045289 -0.024706
vn 0.667297 0.030059 0.744185
vn -0.823964 0.000000 -0.566643
vn 0.902709 0.000000 0.430252
vn 0.078745 0.000000 -0.996895
vn 0.823964 0.000000 0.566642
vn -0.902709 0.000000 0.430252
vn -0.902709 0.000000 -0.430252
vn 0.823964 0.000000 -0.566643
vn -0.078745 0.000000 -0.996895
vn -0.078745 0.000000 0.996895
vn 0.078745 0.000000 0.996895
vn 0.902709 0.000000 -0.430252
vn -0.823964 0.000000 0.566643
vn -0.164310 0.944462 0.284593
vn 0.164310 0.944462 -0.284593
vn 0.328619 0.944462 0.000000
vn 0.164310 0.944462 0.284593
vn -0.328620 0.944462 0.000000
vn -0.164310 0.944462 -0.284593
vn -0.500000 0.000000 0.866026
vn -0.500000 0.000000 -0.866026
usemtl Material
s off
f 1//1 3//1 75//1
f 1//1 75//1 2//1
f 1//1 4//1 107//1
f 1//1 107//1 3//1
f 1//1 5//1 57//1
f 1//1 57//1 4//1
f 1//1 6//1 82//1
f 1//1 82//1 5//1
f 1//1 7//1 105//1
f 1//1 105//1 6//1
f 1//1 2//1 72//1
f 1//1 72//1 7//1
f 99//2 104//2 12//2
f 99//2 12//2 56//2
f 65//3 58//3 10//3
f 65//3 10//3 55//3
f 97//4 72//4 2//4
f 97//4 2//4 49//4
f 100//5 81//5 11//5
f 100//5 11//5 53//5
f 74//6 76//6 8//6
f 74//6 8//6 52//6
f 86//7 108//7 9//7
f 86//7 9//7 51//7
f 81//8 80//8 17//8
f 81//8 17//8 11//8
f 58//9 59//9 16//9
f 58//9 16//9 10//9
f 70//10 71//10 8//10
f 70//10 8//10 14//10
f 108//11 109//11 15//11
f 108//11 15//11 9//11
f 104//12 103//12 18//12
f 104//12 18//12 12//12
f 76//13 77//13 14//13
f 76//13 14//13 8//13
f 93//14 69//14 20//14
f 93//14 20//14 26//14
f 95//15 93//15 26//15
f 95//15 26//15 32//15
f 83//16 84//16 36//16
f 83//16 36//16 30//16
f 66//17 67//17 32//17
f 66//17 32//17 26//17
f 61//18 62//18 34//18
f 61//18 34//18 28//18
f 43//19 94//19 38//19
f 43//19 38//19 44//19
f 39//19 44//19 38//19
f 39//19 38//19 68//19
f 44//19 42//19 85//19
f 44//19 85//19 43//19
f 40//19 63//19 41//19
f 40//19 41//19 44//19
f 44//19 41//19 91//19
f 44//19 91//19 42//19
f 37//20 31//20 93//20
f 37//20 93//20 95//20
f 25//21 31//21 83//21
f 25//21 83//21 102//21
f 31//22 25//22 69//22
f 31//22 69//22 93//22
f 90//23 92//23 35//23
f 90//23 35//23 29//23
f 89//24 106//24 33//24
f 89//24 33//24 27//24
f 60//25 61//25 28//25
f 60//25 28//25 22//25
f 105//26 98//26 45//26
f 105//26 45//26 6//26
f 57//27 64//27 47//27
f 57//27 47//27 4//27
f 150//4 97//4 49//4
f 150//4 49//4 118//4
f 82//28 101//28 48//28
f 82//28 48//28 5//28
f 75//29 73//29 49//29
f 75//29 49//29 2//29
f 107//30 87//30 50//30
f 107//30 50//30 3//30
f 71//31 96//31 52//31
f 71//31 52//31 8//31
f 138//27 65//27 55//27
f 138//27 55//27 123//27
f 146//28 100//28 53//28
f 146//28 53//28 119//28
f 154//26 99//26 56//26
f 154//26 56//26 127//26
f 158//29 74//29 52//29
f 158//29 52//29 115//29
f 142//30 86//30 51//30
f 142//30 51//30 111//30
f 53//32 11//32 58//32
f 53//32 58//32 65//32
f 11//9 17//9 59//9
f 11//9 59//9 58//9
f 22//33 28//33 89//33
f 22//33 89//33 110//33
f 29//34 35//34 62//34
f 29//34 62//34 61//34
f 5//27 48//27 64//27
f 5//27 64//27 57//27
f 119//27 53//27 65//27
f 119//27 65//27 138//27
f 127//28 56//28 100//28
f 127//28 100//28 146//28
f 19//35 13//35 71//35
f 19//35 71//35 70//35
f 13//12 19//12 103//12
f 13//12 103//12 104//12
f 110//36 89//36 27//36
f 110//36 27//36 21//36
f 56//37 12//37 81//37
f 56//37 81//37 100//37
f 6//28 45//28 101//28
f 6//28 101//28 82//28
f 79//38 90//38 29//38
f 79//38 29//38 23//38
f 30//39 36//39 92//39
f 30//39 92//39 90//39
f 28//40 34//40 106//40
f 28//40 106//40 89//40
f 7//26 46//26 98//26
f 7//26 98//26 105//26
f 134//4 46//4 97//4
f 134//4 97//4 150//4
f 12//8 18//8 80//8
f 12//8 80//8 81//8
f 102//41 83//41 30//41
f 102//41 30//41 24//41
f 111//29 51//29 74//29
f 111//29 74//29 158//29
f 31//42 37//42 84//42
f 31//42 84//42 83//42
f 13//43 54//43 96//43
f 13//43 96//43 71//43
f 131//26 54//26 99//26
f 131//26 99//26 154//26
f 54//44 13//44 104//44
f 54//44 104//44 99//44
f 46//4 7//4 72//4
f 46//4 72//4 97//4
f 3//29 50//29 73//29
f 3//29 73//29 75//29
f 78//45 66//45 26//45
f 78//45 26//45 20//45
f 21//46 27//46 66//46
f 21//46 66//46 78//46
f 23//47 29//47 61//47
f 23//47 61//47 60//47
f 51//48 9//48 76//48
f 51//48 76//48 74//48
f 27//49 33//49 67//49
f 27//49 67//49 66//49
f 9//50 15//50 77//50
f 9//50 77//50 76//50
f 55//51 10//51 108//51
f 55//51 108//51 86//51
f 24//52 30//52 90//52
f 24//52 90//52 79//52
f 10//11 16//11 109//11
f 10//11 109//11 108//11
f 123//30 55//30 86//30
f 123//30 86//30 142//30
f 4//30 47//30 87//30
f 4//30 87//30 107//30
f 33//53 39//53 68//53
f 33//53 68//53 67//53
f 84//54 85//54 42//54
f 84//54 42//54 36//54
f 40//19 44//19 39//19
f 40//19 39//19 88//19
f 94//55 95//55 32//55
f 94//55 32//55 38//55
f 36//56 42//56 91//56
f 36//56 91//56 92//56
f 34//57 40//57 88//57
f 34//57 88//57 106//57
f 106//58 88//58 39//58
f 106//58 39//58 33//58
f 43//59 37//59 95//59
f 43//59 95//59 94//59
f 67//60 68//60 38//60
f 67//60 38//60 32//60
f 35//61 41//61 63//61
f 35//61 63//61 62//61
f 92//62 91//62 41//62
f 92//62 41//62 35//62
f 37//63 43//63 85//63
f 37//63 85//63 84//63
f 62//64 63//64 40//64
f 62//64 40//64 34//64
f 17//65 23//65 60//65
f 17//65 60//65 59//65
f 25//66 19//66 70//66
f 25//66 70//66 69//66
f 103//67 102//67 24//67
f 103//67 24//67 18//67
f 80//68 79//68 23//68
f 80//68 23//68 17//68
f 16//69 22//69 110//69
f 16//69 110//69 109//69
f 109//69 110//69 21//69
f 109//69 21//69 15//69
f 59//65 60//65 22//65
f 59//65 22//65 16//65
f 69//66 70//66 14//66
f 69//66 14//66 20//66
f 19//67 25//67 102//67
f 19//67 102//67 103//67
f 15//70 21//70 78//70
f 15//70 78//70 77//70
f 18//68 24//68 79//68
f 18//68 79//68 80//68
f 77//70 78//70 20//70
f 77//70 20//70 14//70
f 96//4 147//4 115//4
f 96//4 115//4 52//4
f 147//4 148//4 116//4
f 147//4 116//4 115//4
f 148//4 149//4 117//4
f 148//4 117//4 116//4
f 149//4 150//4 118//4
f 149//4 118//4 117//4
f 64//27 135//27 126//27
f 64//27 126//27 47//27
f 135//27 136//27 125//27
f 135//27 125//27 126//27
f 136//27 137//27 124//27
f 136//27 124//27 125//27
f 137//27 138//27 123//27
f 137//27 123//27 124//27
f 101//28 143//28 122//28
f 101//28 122//28 48//28
f 143//28 144//28 121//28
f 143//28 121//28 122//28
f 144//28 145//28 120//28
f 144//28 120//28 121//28
f 145//28 146//28 119//28
f 145//28 119//28 120//28
f 98//26 151//26 130//26
f 98//26 130//26 45//26
f 151//26 152//26 129//26
f 151//26 129//26 130//26
f 152//26 153//26 128//26
f 152//26 128//26 129//26
f 153//26 154//26 127//26
f 153//26 127//26 128//26
f 73//29 155//29 118//29
f 73//29 118//29 49//29
f 155//29 156//29 117//29
f 155//29 117//29 118//29
f 156//29 157//29 116//29
f 156//29 116//29 117//29
f 157//29 158//29 115//29
f 157//29 115//29 116//29
f 87//30 139//30 114//30
f 87//30 114//30 50//30
f 139//30 140//30 113//30
f 139//30 113//30 114//30
f 140//30 141//30 112//30
f 140//30 112//30 113//30
f 141//30 142//30 111//30
f 141//30 111//30 112//30
f 48//71 122//71 135//71
f 48//71 135//71 64//71
f 122//71 121//71 136//71
f 122//71 136//71 135//71
f 121//71 120//71 137//71
f 121//71 137//71 136//71
f 120//71 119//71 138//71
f 120//71 138//71 137//71
f 45//28 130//28 143//28
f 45//28 143//28 101//28
f 130//28 129//28 144//28
f 130//28 144//28 143//28
f 129//28 128//28 145//28
f 129//28 145//28 144//28
f 128//28 127//28 146//28
f 128//28 146//28 145//28
f 54//4 131//4 147//4
f 54//4 147//4 96//4
f 131//4 132//4 148//4
f 131//4 148//4 147//4
f 132//4 133//4 149//4
f 132//4 149//4 148//4
f 133//4 134//4 150//4
f 133//4 150//4 149//4
f 50//72 114//72 155//72
f 50//72 155//72 73//72
f 114//72 113//72 156//72
f 114//72 156//72 155//72
f 113//72 112//72 157//72
f 113//72 157//72 156//72
f 112//72 111//72 158//72
f 112//72 158//72 157//72
f 46//26 134//26 151//26
f 46//26 151//26 98//26
f 134//26 133//26 152//26
f 134//26 152//26 151//26
f 133//26 132//26 153//26
f 133//26 153//26 152//26
f 132//26 131//26 154//26
f 132//26 154//26 153//26
f 47//30 126//30 139//30
f 47//30 139//30 87//30
f 126//30 125//30 140//30
f 126//30 140//30 139//30
f 125//30 124//30 141//30
f 125//30 141//30 140//30
f 124//30 123//30 142//30
f 124//30 142//30 141//30
