# Blender v2.63 (sub 0) OBJ File: 'candle.blend'
# www.blender.org
mtllib candle_bottom.mtl
o candle_Cylinder.001
v 0.053235 6.521982 -0.267627
v 0.151599 6.521982 -0.226884
v 0.226884 6.521982 -0.151599
v 0.267628 6.521982 -0.053234
v 0.267628 6.521982 0.053234
v 0.226884 6.521982 0.151599
v 0.151599 6.521982 0.226884
v 0.053235 6.521982 0.267627
v -0.053234 6.521982 0.267627
v -0.151598 6.521982 0.226884
v -0.226883 6.521982 0.151599
v -0.267627 6.521982 0.053234
v -0.267627 6.521982 -0.053234
v -0.226883 6.521982 -0.151599
v -0.053234 6.521982 -0.267627
v -0.151598 6.521982 -0.226884
v 0.151599 5.202075 0.226884
v -0.226883 5.202075 -0.151599
v -0.267627 5.202075 0.053234
v 0.267628 5.202075 0.053234
v 0.226884 5.202075 -0.151599
v -0.151598 5.202075 0.226884
v 0.053235 5.202075 0.267627
v -0.053234 5.202075 -0.267627
v 0.053235 5.202075 -0.267627
v -0.267627 5.202075 -0.053234
v 0.226884 5.202075 0.151599
v 0.267628 5.202075 -0.053234
v -0.226883 5.202075 0.151599
v -0.053234 5.202075 0.267627
v -0.151598 5.202075 -0.226884
v 0.151599 5.202075 -0.226884
v 0.053235 6.546336 -0.267627
v 0.000000 6.521982 -0.272922
v 0.151599 6.546336 -0.226884
v 0.226884 6.546336 -0.151599
v 0.267628 6.546336 -0.053234
v 0.267628 6.546336 0.053234
v 0.226884 6.546336 0.151599
v 0.151599 6.546336 0.226884
v 0.053235 6.546336 0.267627
v -0.053234 6.546336 0.267627
v -0.151598 6.546336 0.226884
v -0.226883 6.546336 0.151599
v -0.267627 6.546336 0.053234
v -0.267627 6.546336 -0.053234
v -0.226883 6.546336 -0.151599
v -0.151598 6.546336 -0.226884
v -0.053234 6.546336 -0.267627
v 0.104443 6.521982 -0.252147
v 0.192985 6.521982 -0.192985
v 0.252147 6.521982 -0.104443
v 0.272922 6.521982 0.000000
v 0.252147 6.521982 0.104443
v 0.192985 6.521982 0.192985
v 0.104443 6.521982 0.252147
v 0.000000 6.521982 0.272922
v -0.104442 6.521982 0.252147
v -0.192985 6.521982 0.192985
v -0.252147 6.521982 0.104443
v -0.272922 6.521982 -0.000000
v -0.252147 6.521982 -0.104443
v -0.192985 6.521982 -0.192985
v -0.104442 6.521982 -0.252147
v 0.053235 3.906523 -0.267627
v 0.151599 3.906523 -0.226884
v 0.226884 3.906523 -0.151599
v 0.267628 3.906523 -0.053234
v 0.267628 3.906523 0.053234
v 0.226884 3.906523 0.151599
v 0.151599 3.906523 0.226884
v 0.053235 3.906523 0.267627
v -0.053234 3.906523 0.267627
v -0.151598 3.906523 0.226884
v -0.226883 3.906523 0.151599
v -0.267627 3.906523 0.053234
v -0.267627 3.906523 -0.053234
v -0.226883 3.906523 -0.151599
v -0.053234 3.906523 -0.267627
v -0.151598 3.906523 -0.226884
v -0.267627 6.179828 0.053234
v -0.151598 6.179828 0.226884
v -0.053234 6.179828 0.267627
v -0.226883 6.179828 0.151599
v 0.267628 6.179828 -0.053234
v 0.151599 6.179828 -0.226884
v 0.053235 6.179828 -0.267627
v 0.226884 6.179828 -0.151599
v -0.252147 5.202075 0.104443
v -0.104442 5.202075 0.252147
v 0.000000 5.202075 0.272922
v -0.192985 5.202075 0.192985
v -0.151598 6.179828 -0.226884
v -0.226883 6.179828 -0.151599
v -0.267627 6.179828 -0.053234
v -0.053234 6.179828 -0.267627
v 0.252147 5.202075 -0.104443
v 0.104443 5.202075 -0.252147
v 0.000000 5.202075 -0.272922
v 0.192985 5.202075 -0.192985
v 0.053235 6.179828 0.267627
v 0.226884 6.179828 0.151599
v 0.267628 6.179828 0.053234
v 0.151599 6.179828 0.226884
v -0.104442 5.202075 -0.252147
v -0.252147 5.202075 -0.104443
v -0.272922 5.202075 -0.000000
v -0.192985 5.202075 -0.192985
v 0.104443 5.202075 0.252147
v 0.252147 5.202075 0.104443
v 0.272922 5.202075 0.000000
v 0.192985 5.202075 0.192985
v 0.000000 6.546336 -0.272922
v 0.104443 6.546336 -0.252147
v 0.192985 6.546336 -0.192985
v 0.252147 6.546336 -0.104443
v 0.272922 6.546336 0.000000
v 0.252147 6.546336 0.104443
v 0.192985 6.546336 0.192985
v 0.104443 6.546336 0.252147
v 0.000000 6.546336 0.272922
v -0.104442 6.546336 0.252147
v -0.192985 6.546336 0.192985
v -0.252147 6.546336 0.104443
v -0.272922 6.546336 -0.000000
v -0.252147 6.546336 -0.104443
v -0.192985 6.546336 -0.192985
v -0.104442 6.546336 -0.252147
v 0.000000 3.906523 -0.272922
v 0.104443 3.906523 -0.252147
v 0.192985 3.906523 -0.192985
v 0.252147 3.906523 -0.104443
v 0.272922 3.906523 0.000000
v 0.252147 3.906523 0.104443
v 0.192985 3.906523 0.192985
v 0.104443 3.906523 0.252147
v 0.000000 3.906523 0.272922
v -0.104442 3.906523 0.252147
v -0.192985 3.906523 0.192985
v -0.252147 3.906523 0.104443
v -0.272922 3.906523 -0.000000
v -0.252147 3.906523 -0.104443
v -0.192985 3.906523 -0.192985
v -0.104442 3.906523 -0.252147
v -0.252147 6.179828 0.104443
v -0.192985 6.179828 0.192985
v -0.104442 6.179828 0.252147
v 0.000000 6.179828 0.272922
v 0.252147 6.179828 -0.104443
v 0.192985 6.179828 -0.192985
v 0.104443 6.179828 -0.252147
v 0.000000 6.179828 -0.272922
v -0.104442 6.179828 -0.252147
v -0.192985 6.179828 -0.192985
v -0.252147 6.179828 -0.104443
v -0.272922 6.179828 -0.000000
v 0.104443 6.179828 0.252147
v 0.192985 6.179828 0.192985
v 0.252147 6.179828 0.104443
v 0.272922 6.179828 0.000000
vn 0.195074 0.000000 -0.980773
vn 0.000000 0.000000 -1.000000
vn 0.000000 0.000000 -0.999969
vn 0.382672 0.000000 -0.923856
vn 0.555559 0.000000 -0.831446
vn 0.707083 0.000000 -0.707083
vn 0.831446 0.000000 -0.555559
vn 0.923856 0.000000 -0.382672
vn 0.980773 0.000000 -0.195074
vn 1.000000 0.000000 0.000000
vn 0.980773 0.000000 0.195074
vn 0.923856 0.000000 0.382672
vn 0.831446 0.000000 0.555559
vn 0.707083 0.000000 0.707083
vn 0.555559 0.000000 0.831446
vn 0.382672 0.000000 0.923856
vn 0.195074 0.000000 0.980773
vn 0.000000 0.000000 0.999969
vn -0.195074 0.000000 0.980773
vn -0.382672 0.000000 0.923856
vn -0.555559 0.000000 0.831446
vn -0.707083 0.000000 0.707083
vn -0.831446 0.000000 0.555559
vn -0.923856 0.000000 0.382672
vn -0.980773 0.000000 0.195074
vn -1.000000 0.000000 0.000000
vn -0.999969 0.000000 0.000000
vn -0.980773 0.000000 -0.195074
vn -0.923856 0.000000 -0.382672
vn -0.831446 0.000000 -0.555559
vn -0.707083 0.000000 -0.707083
vn -0.195074 0.000000 -0.980773
vn -0.382672 0.000000 -0.923856
vn -0.555559 0.000000 -0.831446
vn 0.000000 0.000000 1.000000
usemtl Material.001
s 1
f 1//1 87//1 152//2
f 1//1 152//2 34//3
f 1//1 34//3 113//2
f 1//1 113//2 33//1
f 1//1 33//1 114//4
f 1//1 114//4 50//4
f 1//1 50//4 151//4
f 1//1 151//4 87//1
f 2//5 86//5 151//4
f 2//5 151//4 50//4
f 2//5 50//4 114//4
f 2//5 114//4 35//5
f 2//5 35//5 115//6
f 2//5 115//6 51//6
f 2//5 51//6 150//6
f 2//5 150//6 86//5
f 3//7 88//7 150//6
f 3//7 150//6 51//6
f 3//7 51//6 115//6
f 3//7 115//6 36//7
f 3//7 36//7 116//8
f 3//7 116//8 52//8
f 3//7 52//8 149//8
f 3//7 149//8 88//7
f 4//9 85//9 149//8
f 4//9 149//8 52//8
f 4//9 52//8 116//8
f 4//9 116//8 37//9
f 4//9 37//9 117//10
f 4//9 117//10 53//10
f 4//9 53//10 160//10
f 4//9 160//10 85//9
f 5//11 103//11 160//10
f 5//11 160//10 53//10
f 5//11 53//10 117//10
f 5//11 117//10 38//11
f 5//11 38//11 118//12
f 5//11 118//12 54//12
f 5//11 54//12 159//12
f 5//11 159//12 103//11
f 6//13 102//13 159//12
f 6//13 159//12 54//12
f 6//13 54//12 118//12
f 6//13 118//12 39//13
f 6//13 39//13 119//14
f 6//13 119//14 55//14
f 6//13 55//14 158//14
f 6//13 158//14 102//13
f 7//15 104//15 158//14
f 7//15 158//14 55//14
f 7//15 55//14 119//14
f 7//15 119//14 40//15
f 7//15 40//15 120//16
f 7//15 120//16 56//16
f 7//15 56//16 157//16
f 7//15 157//16 104//15
f 8//17 101//17 157//16
f 8//17 157//16 56//16
f 8//17 56//16 120//16
f 8//17 120//16 41//17
f 8//17 41//17 121//18
f 8//17 121//18 57//18
f 8//17 57//18 148//18
f 8//17 148//18 101//17
f 9//19 83//19 148//18
f 9//19 148//18 57//18
f 9//19 57//18 121//18
f 9//19 121//18 42//19
f 9//19 42//19 122//20
f 9//19 122//20 58//20
f 9//19 58//20 147//20
f 9//19 147//20 83//19
f 10//21 82//21 147//20
f 10//21 147//20 58//20
f 10//21 58//20 122//20
f 10//21 122//20 43//21
f 10//21 43//21 123//22
f 10//21 123//22 59//22
f 10//21 59//22 146//22
f 10//21 146//22 82//21
f 11//23 84//23 146//22
f 11//23 146//22 59//22
f 11//23 59//22 123//22
f 11//23 123//22 44//23
f 11//23 44//23 124//24
f 11//23 124//24 60//24
f 11//23 60//24 145//24
f 11//23 145//24 84//23
f 12//25 81//25 145//24
f 12//25 145//24 60//24
f 12//25 60//24 124//24
f 12//25 124//24 45//25
f 12//25 45//25 125//26
f 12//25 125//26 61//27
f 12//25 61//27 156//27
f 12//25 156//27 81//25
f 13//28 95//28 156//27
f 13//28 156//27 61//27
f 13//28 61//27 125//26
f 13//28 125//26 46//28
f 13//28 46//28 126//29
f 13//28 126//29 62//29
f 13//28 62//29 155//29
f 13//28 155//29 95//28
f 14//30 94//30 155//29
f 14//30 155//29 62//29
f 14//30 62//29 126//29
f 14//30 126//29 47//30
f 14//30 47//30 127//31
f 14//30 127//31 63//31
f 14//30 63//31 154//31
f 14//30 154//31 94//30
f 15//32 96//32 153//33
f 15//32 153//33 64//33
f 15//32 64//33 128//33
f 15//32 128//33 49//32
f 15//32 49//32 113//2
f 15//32 113//2 34//3
f 15//32 34//3 152//2
f 15//32 152//2 96//32
f 16//34 93//34 154//31
f 16//34 154//31 63//31
f 16//34 63//31 127//31
f 16//34 127//31 48//34
f 16//34 48//34 128//33
f 16//34 128//33 64//33
f 16//34 64//33 153//33
f 16//34 153//33 93//34
f 17//15 71//15 135//14
f 17//15 135//14 112//14
f 17//15 112//14 158//14
f 17//15 158//14 104//15
f 17//15 104//15 157//16
f 17//15 157//16 109//16
f 17//15 109//16 136//16
f 17//15 136//16 71//15
f 18//30 78//30 142//29
f 18//30 142//29 106//29
f 18//30 106//29 155//29
f 18//30 155//29 94//30
f 18//30 94//30 154//31
f 18//30 154//31 108//31
f 18//30 108//31 143//31
f 18//30 143//31 78//30
f 19//25 76//25 140//24
f 19//25 140//24 89//24
f 19//25 89//24 145//24
f 19//25 145//24 81//25
f 19//25 81//25 156//27
f 19//25 156//27 107//27
f 19//25 107//27 141//26
f 19//25 141//26 76//25
f 20//11 69//11 133//10
f 20//11 133//10 111//10
f 20//11 111//10 160//10
f 20//11 160//10 103//11
f 20//11 103//11 159//12
f 20//11 159//12 110//12
f 20//11 110//12 134//12
f 20//11 134//12 69//11
f 21//7 67//7 131//6
f 21//7 131//6 100//6
f 21//7 100//6 150//6
f 21//7 150//6 88//7
f 21//7 88//7 149//8
f 21//7 149//8 97//8
f 21//7 97//8 132//8
f 21//7 132//8 67//7
f 22//21 74//21 138//20
f 22//21 138//20 90//20
f 22//21 90//20 147//20
f 22//21 147//20 82//21
f 22//21 82//21 146//22
f 22//21 146//22 92//22
f 22//21 92//22 139//22
f 22//21 139//22 74//21
f 23//17 72//17 136//16
f 23//17 136//16 109//16
f 23//17 109//16 157//16
f 23//17 157//16 101//17
f 23//17 101//17 148//18
f 23//17 148//18 91//35
f 23//17 91//35 137//35
f 23//17 137//35 72//17
f 24//32 79//32 144//33
f 24//32 144//33 105//33
f 24//32 105//33 153//33
f 24//32 153//33 96//32
f 24//32 96//32 152//2
f 24//32 152//2 99//2
f 24//32 99//2 129//2
f 24//32 129//2 79//32
f 25//1 65//1 129//2
f 25//1 129//2 99//2
f 25//1 99//2 152//2
f 25//1 152//2 87//1
f 25//1 87//1 151//4
f 25//1 151//4 98//4
f 25//1 98//4 130//4
f 25//1 130//4 65//1
f 26//28 77//28 141//26
f 26//28 141//26 107//27
f 26//28 107//27 156//27
f 26//28 156//27 95//28
f 26//28 95//28 155//29
f 26//28 155//29 106//29
f 26//28 106//29 142//29
f 26//28 142//29 77//28
f 27//13 70//13 134//12
f 27//13 134//12 110//12
f 27//13 110//12 159//12
f 27//13 159//12 102//13
f 27//13 102//13 158//14
f 27//13 158//14 112//14
f 27//13 112//14 135//14
f 27//13 135//14 70//13
f 28//9 68//9 132//8
f 28//9 132//8 97//8
f 28//9 97//8 149//8
f 28//9 149//8 85//9
f 28//9 85//9 160//10
f 28//9 160//10 111//10
f 28//9 111//10 133//10
f 28//9 133//10 68//9
f 29//23 75//23 139//22
f 29//23 139//22 92//22
f 29//23 92//22 146//22
f 29//23 146//22 84//23
f 29//23 84//23 145//24
f 29//23 145//24 89//24
f 29//23 89//24 140//24
f 29//23 140//24 75//23
f 30//19 73//19 137//35
f 30//19 137//35 91//35
f 30//19 91//35 148//18
f 30//19 148//18 83//19
f 30//19 83//19 147//20
f 30//19 147//20 90//20
f 30//19 90//20 138//20
f 30//19 138//20 73//19
f 31//34 80//34 143//31
f 31//34 143//31 108//31
f 31//34 108//31 154//31
f 31//34 154//31 93//34
f 31//34 93//34 153//33
f 31//34 153//33 105//33
f 31//34 105//33 144//33
f 31//34 144//33 80//34
f 32//5 66//5 130//4
f 32//5 130//4 98//4
f 32//5 98//4 151//4
f 32//5 151//4 86//5
f 32//5 86//5 150//6
f 32//5 150//6 100//6
f 32//5 100//6 131//6
f 32//5 131//6 66//5
