# Blender v2.66 (sub 1) OBJ File: 'table.blend'
# www.blender.org
mtllib table.mtl
o Cube.001
v 27.755102 -1.112871 9.595472
v 27.755102 -1.112871 12.249974
v 27.755102 -0.310192 12.249974
v 27.755102 -0.310192 9.595472
v -25.412121 -1.112871 12.249974
v -27.755102 -1.112871 12.249974
v -27.755102 -0.310192 12.249974
v -25.412121 -0.310192 12.249974
v -27.755102 -1.112867 -9.317067
v -27.755102 -1.112867 -12.249974
v -27.755102 -0.310188 -12.249974
v -27.755102 -0.310188 -9.317067
v 27.755102 -0.310188 -12.249974
v 24.869999 -0.310188 -12.249974
v 24.869999 -1.112867 -12.249974
v 27.755102 -1.112867 -12.249974
v -25.412121 -0.310192 9.595472
v -27.755102 -0.310192 9.595472
v 23.392744 -1.112867 -11.522338
v 26.106476 -1.112867 -11.522338
v -23.387121 -1.112871 11.146310
v -25.543398 -1.112871 11.146310
v -25.543398 -3.090052 11.146309
v -23.387121 -3.090052 11.146309
v -26.106476 -1.112868 -8.763642
v -26.106476 -1.112867 -11.522338
v 26.106476 -1.112870 9.025511
v 26.106476 -1.112871 11.522338
v -23.902666 -1.112871 11.522338
v -26.106476 -1.112871 11.522338
v -23.387121 -1.112868 -8.477644
v -23.387121 -1.112867 -11.146310
v -23.387121 -21.732040 -11.146314
v -23.387121 -21.732040 -8.477648
v 23.392744 -3.090048 -11.522339
v 26.106476 -3.090048 -11.522339
v -25.543398 -1.112868 -8.477644
v -25.543398 -1.112867 -11.146310
v -25.543398 -3.090048 -11.146311
v -25.543398 -3.090049 -8.477645
v 26.106476 -3.090051 9.025510
v 26.106476 -3.090052 11.522337
v 25.543398 -3.090051 8.730966
v 25.543398 -3.090052 11.146309
v -26.106476 -3.090052 11.522337
v -23.902666 -3.090052 11.522337
v -26.106476 -3.090048 -11.522339
v -26.106476 -3.090049 -8.763643
v 23.453106 -3.090048 -11.146311
v 25.543398 -3.090048 -11.146311
v 25.543398 -1.112870 8.730967
v 25.543398 -1.112871 11.146310
v 23.453106 -1.112867 -11.146310
v 25.543398 -1.112867 -11.146310
v 24.869999 -1.112871 12.249974
v 24.869999 -0.310192 12.249974
v -25.412121 -1.112867 -12.249974
v -25.412121 -0.310188 -12.249974
v 24.869999 -0.310192 9.595472
v -23.902666 -1.112867 -11.522338
v 23.453106 -1.112871 11.146310
v 23.453106 -3.090052 11.146309
v 23.392744 -1.112871 11.522338
v 25.543398 -1.112868 -8.477644
v 25.543398 -21.732040 -11.146314
v 25.543398 -21.732040 -8.477648
v -23.902666 -3.090048 -11.522339
v 23.392744 -3.090052 11.522337
v -23.387121 -3.090048 -11.146311
v 24.869999 -0.310188 -9.317067
v -25.412121 -0.310188 -9.317067
v 23.453106 -1.112868 -8.477644
v 23.453106 -21.732040 -8.477648
v -26.106476 -1.112870 9.025511
v -27.755102 -1.112871 9.595472
v -26.106476 -3.090051 9.025510
v -23.387121 -1.112870 8.730967
v 23.453106 -1.112870 8.730967
v 25.543398 -3.090049 -8.477645
v 26.106476 -3.090049 -8.763643
v 26.106476 -1.112868 -8.763642
v 27.755102 -0.310188 -9.317067
v 23.453106 -21.732044 8.730963
v 25.543398 -21.732044 8.730963
v -25.543398 -1.112870 8.730967
v -25.543398 -3.090051 8.730966
v 27.755102 -1.112867 -9.317067
v 23.453106 -21.732040 -11.146314
v -25.543398 -21.732044 8.730963
v -23.387121 -21.732044 8.730963
v -25.543398 -21.732044 11.146306
v -23.387121 -21.732044 11.146306
v 23.453106 -21.732044 11.146306
v -25.543398 -21.732040 -8.477648
v -25.543398 -21.732040 -11.146314
v 25.543398 -21.732044 11.146306
vt 2.766638 -0.397338
vt 2.858855 -0.772840
vt 2.782997 -0.718493
vt 2.837804 -0.390195
vt -1.548479 -0.861584
vt -1.846639 -0.775118
vt -1.766937 -0.723824
vt -1.573670 -0.966655
vt -1.610041 1.598547
vt -1.555564 1.900202
vt -1.526820 1.848201
vt -1.665727 1.623340
vt 2.567816 1.887801
vt 2.357173 1.910160
vt 2.366529 1.989431
vt 2.534886 1.837275
vt -0.214498 0.835860
vt -0.322802 0.970962
vt -0.208506 0.974025
vt -0.316250 0.837325
vt 2.249568 1.851542
vt 2.429891 1.743780
vt -1.259757 -0.439466
vt -1.401997 -0.492560
vt -1.313037 -0.403308
vt -1.292930 -0.599678
vt -1.508790 1.509261
vt -1.420922 1.753998
vt 2.624567 -0.347926
vt 2.582919 -0.660447
vt -1.399644 -0.803915
vt -1.584966 -0.648655
vt -1.201668 1.403283
vt -1.238263 1.453407
vt -1.205585 1.520151
vt -1.238192 1.451500
vt 2.225814 1.684593
vt 2.346618 1.620588
vt -1.270557 1.416791
vt -1.311036 1.589241
vt -1.252375 1.496651
vt -1.370954 1.433366
vt 2.482881 -0.335951
vt 2.453811 -0.529764
vt 2.442555 -0.313919
vt 2.403823 -0.497896
vt -1.451352 -0.527843
vt -1.346695 -0.620105
vt -1.340273 1.626240
vt -1.393980 1.464568
vt 2.225228 1.660965
vt 2.317454 1.584965
vt 2.322335 -0.322693
vt 2.315267 -0.408338
vt 2.213229 1.518711
vt 2.257915 1.493856
vt 2.493916 -0.858412
vt 2.514999 -0.966974
vt -1.388029 1.946894
vt -1.382462 1.865890
vt 1.147408 0.837297
vt 1.144612 0.976557
vt -1.267936 1.831638
vt 2.263233 -0.444099
vt 2.296376 -0.605459
vt 2.354990 -0.822387
vt 2.274708 1.413486
vt 2.245458 1.449739
vt 2.245547 1.448129
vt -1.247118 1.668846
vt 2.309711 -0.634615
vt -1.214178 1.660204
vt 1.184944 0.008236
vt -0.184683 0.159171
vt 1.190982 0.151256
vt -0.183522 0.008244
vt 2.208513 1.400765
vt 2.245291 1.448081
vt -0.285730 0.157217
vt 1.269826 0.839646
vt 1.280641 0.964803
vt -1.617086 -0.337779
vt -1.751662 -0.396096
vt -1.475815 -0.329033
vt -1.236460 -0.321971
vt 2.240893 -0.326751
vt 2.374085 1.427308
vt 2.394606 1.456438
vt 2.507964 1.496191
vt 1.310559 0.149402
vt 2.288741 -0.368094
vt 2.289239 -0.368026
vt -1.319642 -0.316976
vt -1.439047 -0.306944
vt -1.823488 -0.389148
vt 2.604750 1.588241
vt 2.245396 1.450032
vt 2.660733 1.610419
vt -1.285214 -0.364416
vt -1.284629 -0.364509
vt -1.285303 -0.365791
vt 1.316694 0.011453
vt -1.284870 -0.366043
vt 2.288993 -0.369684
vt -1.238543 1.451540
vt -1.238435 1.453147
vt -0.295985 0.016437
vt 2.289326 -0.369438
vn 1.000000 -0.000000 0.000000
vn -0.000000 0.000000 1.000000
vn -1.000000 0.000000 0.000000
vn 0.000000 0.000000 -1.000000
vn 0.000000 1.000000 0.000000
vn 0.000000 -1.000000 -0.000000
usemtl Material.001
s off
f 1/1/1 3/2/1 2/3/1
f 1/1/1 4/4/1 3/2/1
f 5/5/2 7/6/2 6/7/2
f 5/5/2 8/8/2 7/6/2
f 9/9/3 11/10/3 10/11/3
f 9/9/3 12/12/3 11/10/3
f 13/13/4 15/14/4 14/15/4
f 13/13/4 16/16/4 15/14/4
f 17/17/5 7/18/5 8/19/5
f 17/17/5 18/20/5 7/18/5
f 19/21/6 16/16/6 20/22/6
f 19/21/6 15/14/6 16/16/6
f 21/23/4 23/24/4 22/25/4
f 21/23/4 24/26/4 23/24/4
f 25/27/6 10/11/6 26/28/6
f 25/27/6 9/9/6 10/11/6
f 27/29/6 2/3/6 28/30/6
f 2/3/6 27/29/6 1/1/6
f 29/31/6 6/7/6 30/32/6
f 29/31/6 5/5/6 6/7/6
f 31/33/1 33/34/1 32/35/1
f 31/33/1 34/36/1 33/34/1
f 35/37/4 20/22/4 36/38/4
f 35/37/4 19/21/4 20/22/4
f 37/39/1 39/40/1 38/41/1
f 37/39/1 40/42/1 39/40/1
f 41/43/1 28/30/1 42/44/1
f 41/43/1 27/29/1 28/30/1
f 43/45/6 42/44/6 44/46/6
f 43/45/6 41/43/6 42/44/6
f 24/26/6 45/47/6 23/24/6
f 24/26/6 46/48/6 45/47/6
f 40/42/6 47/49/6 39/40/6
f 40/42/6 48/50/6 47/49/6
f 49/51/6 36/38/6 50/52/6
f 49/51/6 35/37/6 36/38/6
f 48/50/3 26/28/3 47/49/3
f 48/50/3 25/27/3 26/28/3
f 51/53/3 44/46/3 52/54/3
f 51/53/3 43/45/3 44/46/3
f 46/48/2 30/32/2 45/47/2
f 46/48/2 29/31/2 30/32/2
f 53/55/2 50/52/2 54/56/2
f 53/55/2 49/51/2 50/52/2
f 55/57/2 8/8/2 5/5/2
f 55/57/2 56/58/2 8/8/2
f 10/11/4 58/59/4 57/60/4
f 10/11/4 11/10/4 58/59/4
f 59/61/5 8/19/5 56/62/5
f 59/61/5 17/17/5 8/19/5
f 26/28/6 57/60/6 60/63/6
f 26/28/6 10/11/6 57/60/6
f 61/64/4 24/26/4 21/23/4
f 61/64/4 62/65/4 24/26/4
f 63/66/6 5/5/6 29/31/6
f 63/66/6 55/57/6 5/5/6
f 64/67/1 65/68/1 54/56/1
f 64/67/1 66/69/1 65/68/1
f 47/49/4 60/63/4 67/70/4
f 47/49/4 26/28/4 60/63/4
f 62/65/6 46/48/6 24/26/6
f 62/65/6 68/71/6 46/48/6
f 39/40/6 67/70/6 69/72/6
f 39/40/6 47/49/6 67/70/6
f 68/71/2 29/31/2 46/48/2
f 68/71/2 63/66/2 29/31/2
f 38/41/2 69/72/2 32/35/2
f 38/41/2 39/40/2 69/72/2
f 32/35/2 49/51/2 53/55/2
f 32/35/2 69/72/2 49/51/2
f 14/73/5 71/74/5 70/75/5
f 14/73/5 58/76/5 71/74/5
f 72/77/2 66/69/2 64/67/2
f 72/77/2 73/78/2 66/69/2
f 71/74/5 18/20/5 17/17/5
f 71/74/5 12/79/5 18/20/5
f 42/44/2 63/66/2 68/71/2
f 42/44/2 28/30/2 63/66/2
f 4/80/5 56/62/5 3/81/5
f 4/80/5 59/61/5 56/62/5
f 60/63/6 15/14/6 19/21/6
f 60/63/6 57/60/6 15/14/6
f 74/82/6 9/9/6 25/27/6
f 74/82/6 75/83/6 9/9/6
f 69/72/6 35/37/6 49/51/6
f 69/72/6 67/70/6 35/37/6
f 45/47/3 74/82/3 76/84/3
f 45/47/3 30/32/3 74/82/3
f 77/85/6 61/64/6 21/23/6
f 77/85/6 78/86/6 61/64/6
f 67/70/4 19/21/4 35/37/4
f 67/70/4 60/63/4 19/21/4
f 64/67/3 43/45/3 51/53/3
f 64/67/3 79/87/3 43/45/3
f 80/88/1 27/29/1 41/43/1
f 80/88/1 81/89/1 27/29/1
f 28/30/6 55/57/6 63/66/6
f 28/30/6 2/3/6 55/57/6
f 82/90/5 59/61/5 4/80/5
f 82/90/5 70/75/5 59/61/5
f 57/60/4 14/15/4 15/14/4
f 57/60/4 58/59/4 14/15/4
f 44/46/6 68/71/6 62/65/6
f 44/46/6 42/44/6 68/71/6
f 83/91/4 51/53/4 84/92/4
f 83/91/4 78/86/4 51/53/4
f 2/3/2 56/58/2 55/57/2
f 2/3/2 3/2/2 56/58/2
f 52/54/4 62/65/4 61/64/4
f 52/54/4 44/46/4 62/65/4
f 37/39/6 77/85/6 85/93/6
f 37/39/6 31/33/6 77/85/6
f 22/25/1 86/94/1 85/93/1
f 22/25/1 23/24/1 86/94/1
f 6/7/3 18/95/3 75/83/3
f 6/7/3 7/6/3 18/95/3
f 36/38/1 81/89/1 80/88/1
f 36/38/1 20/22/1 81/89/1
f 70/75/5 17/17/5 59/61/5
f 70/75/5 71/74/5 17/17/5
f 31/33/6 78/86/6 77/85/6
f 31/33/6 72/77/6 78/86/6
f 27/29/6 81/89/6 1/1/6
f 81/89/6 87/96/6 1/1/6
f 73/78/3 53/55/3 88/97/3
f 73/78/3 72/77/3 53/55/3
f 79/87/6 41/43/6 43/45/6
f 79/87/6 80/88/6 41/43/6
f 23/24/6 76/84/6 86/94/6
f 23/24/6 45/47/6 76/84/6
f 30/32/6 75/83/6 74/82/6
f 30/32/6 6/7/6 75/83/6
f 87/96/1 4/4/1 1/1/1
f 87/96/1 82/98/1 4/4/1
f 72/77/6 51/53/6 78/86/6
f 72/77/6 64/67/6 51/53/6
f 89/99/4 77/85/4 90/100/4
f 89/99/4 85/93/4 77/85/4
f 85/93/3 91/101/3 22/25/3
f 85/93/3 89/99/3 91/101/3
f 13/102/5 70/75/5 82/90/5
f 13/102/5 14/73/5 70/75/5
f 75/83/3 12/12/3 9/9/3
f 75/83/3 18/95/3 12/12/3
f 82/98/1 16/16/1 13/13/1
f 82/98/1 87/96/1 16/16/1
f 88/97/6 66/69/6 73/78/6
f 88/97/6 65/68/6 66/69/6
f 20/22/6 87/96/6 81/89/6
f 20/22/6 16/16/6 87/96/6
f 92/103/2 22/25/2 91/101/2
f 92/103/2 21/23/2 22/25/2
f 89/99/6 92/103/6 91/101/6
f 89/99/6 90/100/6 92/103/6
f 54/56/3 79/87/3 64/67/3
f 54/56/3 50/52/3 79/87/3
f 32/35/6 72/77/6 31/33/6
f 32/35/6 53/55/6 72/77/6
f 78/86/3 93/104/3 61/64/3
f 78/86/3 83/91/3 93/104/3
f 94/105/3 38/41/3 95/106/3
f 94/105/3 37/39/3 38/41/3
f 86/94/6 48/50/6 40/42/6
f 86/94/6 76/84/6 48/50/6
f 85/93/1 40/42/1 37/39/1
f 85/93/1 86/94/1 40/42/1
f 50/52/6 80/88/6 79/87/6
f 50/52/6 36/38/6 80/88/6
f 76/84/3 25/27/3 48/50/3
f 76/84/3 74/82/3 25/27/3
f 58/76/5 12/79/5 71/74/5
f 58/76/5 11/107/5 12/79/5
f 61/64/2 96/108/2 52/54/2
f 61/64/2 93/104/2 96/108/2
f 32/35/4 95/106/4 38/41/4
f 32/35/4 33/34/4 95/106/4
f 95/106/6 34/36/6 94/105/6
f 95/106/6 33/34/6 34/36/6
f 90/100/1 21/23/1 92/103/1
f 90/100/1 77/85/1 21/23/1
f 84/92/1 52/54/1 96/108/1
f 84/92/1 51/53/1 52/54/1
f 37/39/2 34/36/2 31/33/2
f 37/39/2 94/105/2 34/36/2
f 88/97/4 54/56/4 65/68/4
f 88/97/4 53/55/4 54/56/4
f 83/91/6 96/108/6 93/104/6
f 83/91/6 84/92/6 96/108/6
