# Blender v2.63 (sub 0) OBJ File: 'table.blend'
# www.blender.org
mtllib table.mtl
o Cube
v 27.755102 -0.310190 -12.249974
v 27.755102 -0.310190 12.249974
v -27.755102 -0.310190 12.249974
v -27.755102 -0.310190 -12.249974
v 27.755102 -1.112869 -12.249974
v 27.755102 -1.112869 12.249974
v -27.755102 -1.112869 12.249974
v -27.755102 -1.112869 -12.249974
v 26.106476 -1.112869 -11.522338
v 26.106476 -1.112869 11.522338
v -26.106476 -1.112869 11.522338
v -26.106476 -1.112869 -11.522338
v 25.543398 -1.112869 -11.146310
v 25.543398 -1.112869 11.146310
v -25.543398 -1.112869 11.146310
v -25.543398 -1.112869 -11.146310
v 26.106476 -3.090050 -11.522338
v 26.106476 -3.090050 11.522338
v -26.106476 -3.090050 11.522338
v -26.106476 -3.090050 -11.522338
v 25.543398 -3.090050 -11.146310
v 25.543398 -3.090050 11.146310
v -25.543398 -3.090050 11.146310
v -25.543398 -3.090050 -11.146310
v -25.412121 -1.112869 12.249974
v -25.412121 -0.310190 12.249974
v -25.412121 -1.112869 -12.249974
v -25.412121 -0.310190 -12.249974
v -23.902666 -1.112869 11.522338
v -23.902666 -1.112869 -11.522338
v -23.387121 -1.112869 11.146310
v -23.387121 -1.112869 -11.146310
v -23.902666 -3.090050 11.522338
v -23.902666 -3.090050 -11.522338
v -23.387121 -3.090050 11.146310
v -23.387121 -3.090050 -11.146310
v -23.387121 -1.112869 -8.477644
v -25.412121 -0.310190 -9.317067
v -25.543398 -3.090050 -8.477644
v -26.106476 -3.090050 -8.763642
v 26.106476 -1.112869 9.025511
v -26.106476 -1.112869 9.025511
v 25.543398 -1.112869 8.730967
v -25.543398 -1.112869 8.730967
v 24.869999 -0.310190 -12.249974
v 24.869999 -1.112869 12.249974
v 23.453106 -3.090050 -11.146310
v 23.392744 -3.090050 -11.522338
v 26.106476 -3.090050 9.025511
v -26.106476 -3.090050 9.025511
v 25.543398 -3.090050 8.730967
v -25.543398 -3.090050 8.730967
v 23.453106 -3.090050 11.146310
v 23.392744 -3.090050 11.522338
v 23.453106 -1.112869 11.146310
v 23.392744 -1.112869 11.522338
v -25.543398 -21.732042 8.730967
v 23.453106 -21.732042 11.146310
v 23.453106 -21.732042 -11.146310
v -25.543398 -21.732042 -8.477644
v 23.453106 -1.112869 -11.146310
v 23.392744 -1.112869 -11.522338
v 24.869999 -1.112869 -12.249974
v 24.869999 -0.310190 12.249974
v -25.543398 -1.112869 -8.477644
v -26.106476 -1.112869 -8.763642
v -27.755102 -1.112869 -9.317067
v 27.755102 -0.310190 -9.317067
v 23.453106 -1.112869 8.730967
v 24.869999 -0.310190 9.595472
v -23.387121 -1.112869 8.730967
v -25.412121 -0.310190 9.595472
v -27.755102 -0.310190 9.595472
v -27.755102 -1.112869 9.595472
v 27.755102 -0.310190 9.595472
v 27.755102 -1.112869 9.595472
v 23.453106 -21.732042 8.730967
v -23.387121 -21.732042 8.730967
v 25.543398 -21.732042 -8.477644
v 23.453106 -21.732042 -8.477644
v 27.755102 -1.112869 -9.317067
v -27.755102 -0.310190 -9.317067
v 26.106476 -1.112869 -8.763642
v 25.543398 -1.112869 -8.477644
v 23.453106 -1.112869 -8.477644
v 24.869999 -0.310190 -9.317067
v 26.106476 -3.090050 -8.763642
v 25.543398 -3.090050 -8.477644
v -23.387121 -21.732042 11.146310
v -23.387121 -21.732042 -11.146310
v -23.387121 -21.732042 -8.477644
v 25.543398 -21.732042 8.730967
v -25.543398 -21.732042 -11.146310
v -25.543398 -21.732042 11.146310
v 25.543398 -21.732042 11.146310
v 25.543398 -21.732042 -11.146310
vn -1.000000 -0.000000 0.000000
vn 0.000000 -0.000000 -1.000000
vn 1.000000 0.000000 0.000000
vn 0.000000 -0.000000 1.000000
vn 0.000000 -1.000000 0.000000
vn 0.000000 1.000000 -0.000000
usemtl Material
s off
f 76//1 6//1 2//1
f 76//1 2//1 75//1
f 25//2 7//2 3//2
f 25//2 3//2 26//2
f 67//3 8//3 4//3
f 67//3 4//3 82//3
f 1//4 45//4 63//4
f 1//4 63//4 5//4
f 72//5 26//5 3//5
f 72//5 3//5 73//5
f 62//6 9//6 5//6
f 62//6 5//6 63//6
f 31//4 15//4 23//4
f 31//4 23//4 35//4
f 66//6 12//6 8//6
f 66//6 8//6 67//6
f 41//6 10//6 6//6
f 41//6 6//6 76//6
f 29//6 11//6 7//6
f 29//6 7//6 25//6
f 37//1 32//1 90//1
f 37//1 90//1 91//1
f 48//4 17//4 9//4
f 48//4 9//4 62//4
f 65//1 16//1 24//1
f 65//1 24//1 39//1
f 49//1 18//1 10//1
f 49//1 10//1 41//1
f 51//6 22//6 18//6
f 51//6 18//6 49//6
f 35//6 23//6 19//6
f 35//6 19//6 33//6
f 39//6 24//6 20//6
f 39//6 20//6 40//6
f 47//6 21//6 17//6
f 47//6 17//6 48//6
f 40//3 20//3 12//3
f 40//3 12//3 66//3
f 43//3 14//3 22//3
f 43//3 22//3 51//3
f 33//2 19//2 11//2
f 33//2 11//2 29//2
f 61//2 13//2 21//2
f 61//2 21//2 47//2
f 46//2 25//2 26//2
f 46//2 26//2 64//2
f 8//4 27//4 28//4
f 8//4 28//4 4//4
f 70//5 64//5 26//5
f 70//5 26//5 72//5
f 12//6 30//6 27//6
f 12//6 27//6 8//6
f 55//4 31//4 35//4
f 55//4 35//4 53//4
f 56//6 29//6 25//6
f 56//6 25//6 46//6
f 84//1 13//1 96//1
f 84//1 96//1 79//1
f 20//4 34//4 30//4
f 20//4 30//4 12//4
f 53//6 35//6 33//6
f 53//6 33//6 54//6
f 24//6 36//6 34//6
f 24//6 34//6 20//6
f 54//2 33//2 29//2
f 54//2 29//2 56//2
f 16//2 32//2 36//2
f 16//2 36//2 24//2
f 32//2 61//2 47//2
f 32//2 47//2 36//2
f 45//5 86//5 38//5
f 45//5 38//5 28//5
f 85//2 84//2 79//2
f 85//2 79//2 80//2
f 38//5 72//5 73//5
f 38//5 73//5 82//5
f 18//2 54//2 56//2
f 18//2 56//2 10//2
f 75//5 2//5 64//5
f 75//5 64//5 70//5
f 30//6 62//6 63//6
f 30//6 63//6 27//6
f 42//6 66//6 67//6
f 42//6 67//6 74//6
f 36//6 47//6 48//6
f 36//6 48//6 34//6
f 19//3 50//3 42//3
f 19//3 42//3 11//3
f 71//6 31//6 55//6
f 71//6 55//6 69//6
f 34//4 48//4 62//4
f 34//4 62//4 30//4
f 84//3 43//3 51//3
f 84//3 51//3 88//3
f 87//1 49//1 41//1
f 87//1 41//1 83//1
f 10//6 56//6 46//6
f 10//6 46//6 6//6
f 68//5 75//5 70//5
f 68//5 70//5 86//5
f 27//4 63//4 45//4
f 27//4 45//4 28//4
f 22//6 53//6 54//6
f 22//6 54//6 18//6
f 77//4 92//4 43//4
f 77//4 43//4 69//4
f 6//2 46//2 64//2
f 6//2 64//2 2//2
f 14//4 55//4 53//4
f 14//4 53//4 22//4
f 65//6 44//6 71//6
f 65//6 71//6 37//6
f 15//1 44//1 52//1
f 15//1 52//1 23//1
f 7//3 74//3 73//3
f 7//3 73//3 3//3
f 17//1 87//1 83//1
f 17//1 83//1 9//1
f 86//5 70//5 72//5
f 86//5 72//5 38//5
f 37//6 71//6 69//6
f 37//6 69//6 85//6
f 83//6 41//6 76//6
f 83//6 76//6 81//6
f 80//3 59//3 61//3
f 80//3 61//3 85//3
f 88//6 51//6 49//6
f 88//6 49//6 87//6
f 23//6 52//6 50//6
f 23//6 50//6 19//6
f 11//6 42//6 74//6
f 11//6 74//6 7//6
f 81//1 76//1 75//1
f 81//1 75//1 68//1
f 85//6 69//6 43//6
f 85//6 43//6 84//6
f 57//4 78//4 71//4
f 57//4 71//4 44//4
f 44//3 15//3 94//3
f 44//3 94//3 57//3
f 1//5 68//5 86//5
f 1//5 86//5 45//5
f 74//3 67//3 82//3
f 74//3 82//3 73//3
f 68//1 1//1 5//1
f 68//1 5//1 81//1
f 59//6 80//6 79//6
f 59//6 79//6 96//6
f 9//6 83//6 81//6
f 9//6 81//6 5//6
f 89//2 94//2 15//2
f 89//2 15//2 31//2
f 57//6 94//6 89//6
f 57//6 89//6 78//6
f 13//3 84//3 88//3
f 13//3 88//3 21//3
f 32//6 37//6 85//6
f 32//6 85//6 61//6
f 69//3 55//3 58//3
f 69//3 58//3 77//3
f 60//3 93//3 16//3
f 60//3 16//3 65//3
f 52//6 39//6 40//6
f 52//6 40//6 50//6
f 44//1 65//1 39//1
f 44//1 39//1 52//1
f 21//6 88//6 87//6
f 21//6 87//6 17//6
f 50//3 40//3 66//3
f 50//3 66//3 42//3
f 28//5 38//5 82//5
f 28//5 82//5 4//5
f 55//2 14//2 95//2
f 55//2 95//2 58//2
f 32//4 16//4 93//4
f 32//4 93//4 90//4
f 93//6 60//6 91//6
f 93//6 91//6 90//6
f 78//1 89//1 31//1
f 78//1 31//1 71//1
f 92//1 95//1 14//1
f 92//1 14//1 43//1
f 65//2 37//2 91//2
f 65//2 91//2 60//2
f 59//4 96//4 13//4
f 59//4 13//4 61//4
f 77//6 58//6 95//6
f 77//6 95//6 92//6
