# Blender v2.66 (sub 1) OBJ File: 'piano.blend'
# www.blender.org
o Cube.011_Cube.014
v -2.858879 1.041553 3.949894
v -2.858879 1.041553 0.241281
v 2.914309 1.041553 0.241281
v 2.914309 1.041553 3.949894
v -2.858879 1.360671 3.949894
v -2.858879 1.360671 0.241281
v 2.914309 1.360671 0.241281
v 2.914309 1.360671 3.949894
v 3.214309 1.041553 0.241281
v 3.214309 1.041553 3.949894
v 3.214309 1.360671 0.241281
v 3.214309 1.360671 3.949894
v -3.158879 1.041553 3.949894
v -3.158879 1.041553 0.241281
v -3.158879 1.360671 3.949894
v -3.158879 1.360671 0.241281
v 2.914309 2.091577 0.241281
v 2.914309 1.950937 3.949894
v 3.214309 2.091577 0.241281
v 3.214309 1.950937 3.949894
v -2.858879 1.942478 3.949894
v -2.858879 2.083118 0.241281
v -3.158879 1.942478 3.949894
v -3.158879 2.083118 0.241281
v -2.858879 1.041553 4.083899
v 2.914309 1.041553 4.083899
v -2.858879 1.360671 4.083899
v 2.914309 1.360671 4.083899
v 3.214309 1.041553 4.083899
v 3.214309 1.360671 4.083899
v -3.158879 1.041553 4.083899
v -3.158879 1.360671 4.083899
v 2.914309 1.950937 4.083899
v 3.214309 1.950937 4.083899
v -2.858879 1.942478 4.083899
v -3.158879 1.942478 4.083899
v -2.858879 1.135524 3.949894
v -2.858879 1.135524 0.241281
v 2.914309 1.135524 0.241281
v 2.914309 1.135524 3.949894
v -2.858879 1.041553 4.103730
v 2.914309 1.041553 4.103730
v -2.858879 1.360671 4.150526
v 2.914309 1.360671 4.150526
v 3.214309 1.041553 4.103730
v 3.214309 1.360671 4.150526
v -3.158879 1.041553 4.103730
v -3.158879 1.360671 4.150526
v 2.914309 1.950937 4.150526
v 3.214309 1.950937 4.150526
v -2.858879 1.942478 4.150526
v -3.158879 1.942478 4.150526
v -2.858879 1.360671 3.022740
v -2.858879 1.360671 2.095587
v -2.858879 1.360671 1.168434
v -2.858879 1.041553 1.168434
v -2.858879 1.041553 2.095587
v -2.858879 1.041553 3.022740
v 2.914309 1.360671 1.168434
v 2.914309 1.360671 2.095587
v 2.914309 1.360671 3.022740
v 2.914309 1.041553 3.022740
v 2.914309 1.041553 2.095587
v 2.914309 1.041553 1.168434
v 3.214309 1.360671 1.168434
v 3.214309 1.360671 2.095587
v 3.214309 1.360671 3.022740
v 3.214309 1.041553 3.022740
v 3.214309 1.041553 2.095587
v 3.214309 1.041553 1.168434
v -3.158879 1.360671 3.022740
v -3.158879 1.360671 2.095587
v -3.158879 1.360671 1.168434
v -3.158879 1.041553 1.168434
v -3.158879 1.041553 2.095587
v -3.158879 1.041553 3.022740
v 2.914309 2.091577 1.168434
v 2.914309 2.091577 2.095587
v 2.914309 2.009537 3.022740
v 3.214309 2.091577 1.168434
v 3.214309 2.091577 2.095587
v 3.214309 2.009537 3.022740
v -2.858879 1.942478 3.022740
v -2.858879 2.001078 2.095587
v -2.858879 2.083118 1.168434
v -3.158879 1.942478 3.022740
v -3.158879 2.001078 2.095587
v -3.158879 2.083118 1.168434
v -2.858879 1.135524 3.022740
v -2.858879 1.135524 2.095587
v -2.858879 1.135524 1.168434
v 2.914309 1.135524 1.168434
v 2.914309 1.135524 2.095587
v 2.914309 1.135524 3.022740
v -2.858879 1.041553 0.077059
v 2.914309 1.041553 0.077059
v -2.858879 1.360671 0.077059
v 2.914309 1.360671 0.077059
v 3.214309 1.041553 0.077059
v 3.214309 1.360671 0.077059
v -3.158879 1.041553 0.077059
v -3.158879 1.360671 0.077059
v 2.914309 2.091577 0.077059
v 3.214309 2.091577 0.077059
v -2.858879 2.083118 0.077059
v -3.158879 2.083118 0.077059
v -2.858879 1.135524 0.077059
v 2.914309 1.135524 0.077059
v -2.858879 1.041553 -1.422941
v 2.914309 1.041553 -1.422941
v -2.858879 1.360671 -1.422941
v 2.914309 1.360671 -1.422941
v 3.214309 1.041553 -1.422941
v 3.214309 1.360671 -1.422941
v -3.158879 1.041553 -1.422941
v -3.158879 1.360671 -1.422941
v 2.914309 2.091577 -1.422941
v 3.214309 2.091577 -1.422941
v -2.858879 2.083118 -1.422941
v -3.158879 2.083118 -1.422941
v -2.858879 1.135524 -1.422941
v 2.914309 1.135524 -1.422941
v 2.625650 1.041553 0.241281
v 2.625650 1.360671 3.949894
v 2.625650 1.041553 3.949894
v 2.625650 1.360671 4.083899
v 2.625650 1.041553 4.083899
v 2.625650 1.135524 0.241281
v 2.625650 1.135524 3.949894
v 2.625650 1.041553 3.022740
v 2.625650 1.041553 2.095587
v 2.625650 1.041553 1.168434
v 2.625650 1.135524 3.022740
v 2.625650 1.135524 2.095587
v 2.625650 1.135524 1.168434
v 2.625650 1.041553 0.077059
v 2.625650 1.135524 0.077059
v 2.625650 1.041553 -1.422941
v 2.625650 1.135524 -1.422941
v 0.041010 1.041553 -0.836577
v 0.041010 1.041553 4.083899
v 0.041010 1.041553 -1.422941
v 0.041010 -3.958446 -1.422941
v 0.041010 1.135524 1.168434
v 2.625650 -3.958446 -1.607098
v -2.543631 -4.193763 -0.836577
v 2.914309 -3.958446 -0.836577
v -2.543631 1.135524 0.077059
v -2.543631 1.041553 1.168434
v -2.543631 1.041553 2.095587
v -2.543631 1.041553 3.022740
v -3.158879 1.041553 -0.836577
v 2.625650 1.041553 -0.836577
v -2.543631 1.041553 -0.836577
v -2.543631 1.135524 3.949894
v -2.543631 1.360671 4.083899
v -2.543631 1.360671 3.949894
v -2.543631 1.041553 0.241281
v 0.041010 1.041553 0.241281
v 0.041010 1.360671 3.949894
v 0.041010 1.135524 3.949894
v -2.543631 1.135524 -1.422941
v 0.041010 1.041553 3.949894
v 0.041010 1.135524 0.241281
v -2.543631 1.041553 0.077059
v -2.543631 1.135524 1.168434
v -2.543631 1.135524 2.095587
v -2.543631 1.135524 3.022740
v 2.625650 -4.193763 -0.836577
v 2.914309 -3.958446 0.077059
v -2.543631 -3.958446 -0.836577
v 2.625650 -3.958446 -0.836577
v 2.625650 -3.958446 -1.422941
v 0.041010 1.360671 4.083899
v 2.625650 -3.958446 0.241281
v 2.914309 -3.958446 -1.422941
v -2.858879 -3.958446 -1.422941
v 2.914309 -4.193763 1.413668
v -2.858879 -4.193763 1.413668
v 0.041010 1.135524 3.022740
v 2.914309 2.091577 -0.836577
v 3.214309 2.091577 -0.836577
v 2.914309 1.041553 -0.836577
v -2.543631 -3.958446 -1.607098
v 2.625650 -4.193763 1.413668
v 0.041010 -3.958446 -0.836577
v 0.041010 1.135524 2.095587
v 0.041010 1.041553 0.077059
v 0.041010 1.135524 -1.422941
v -2.543631 -3.958446 0.241281
v -3.158879 1.360671 -0.836577
v -2.858879 -3.958446 -0.836577
v -2.543631 -3.958446 -1.422941
v -2.543631 1.135524 0.241281
v -2.543631 1.041553 4.083899
v -2.543631 1.041553 3.949894
v -2.543631 1.041553 -1.422941
v -2.543631 -3.958446 0.077059
v 2.914309 -3.958446 -1.607098
v -2.858879 -3.958446 -1.607098
v 2.914309 -4.193763 -0.836577
v 2.914309 -4.193763 0.077059
v -2.543631 -4.193763 1.413668
v -2.858879 -3.958446 0.077059
v 2.914309 -3.958446 0.241281
v -2.858879 -3.958446 0.241281
v 3.214309 1.041553 -0.836577
v 2.625650 -3.958446 0.077059
v 0.041010 1.041553 1.168434
v 0.041010 1.041553 3.022740
v 0.041010 1.041553 2.095587
v 0.041010 1.135524 0.077059
v -3.158879 2.083118 -0.836577
v -2.858879 2.083118 -0.836577
v 3.214309 1.360671 -0.836577
v -2.858879 1.041553 -0.836577
v 2.625650 -4.193763 0.077059
v -2.858879 -4.193763 0.241281
v 2.914309 -4.193763 0.241281
v -2.858879 -4.193763 0.077059
v -2.858879 -3.958446 1.198727
v 2.914309 -3.958446 1.198727
v -2.543631 -3.958446 1.198727
v 2.625650 -3.958446 1.198727
v -2.543631 -4.193763 0.077059
v -2.543631 -4.193763 -1.422941
v -2.858879 -4.193763 -0.836577
v -2.543631 -4.193763 0.241281
v 2.625650 -4.193763 -1.702182
v 2.914309 -4.193763 -1.702182
v -2.858879 -4.193763 -1.702182
v -2.543631 -4.193763 -1.702182
v -2.858879 -4.193763 -1.422941
v 2.914309 -4.193763 -1.422941
v 2.625650 -4.193763 0.241281
v 2.625650 -4.193763 -1.422941
vn 1.000000 0.000000 -0.000000
vn -1.000000 0.000000 -0.000000
vn 0.000000 -1.000000 0.000000
vn 0.000000 0.000000 -1.000000
vn -0.000000 1.000000 0.000000
vn 0.000000 0.998009 0.063078
vn 0.000000 0.000000 1.000000
vn 0.000000 -0.145090 0.989419
vn 0.000000 0.996108 0.088142
vn -0.000000 0.996108 0.088141
vn -0.001465 0.999999 0.000000
vn 0.000000 0.374640 -0.927170
vn -0.000000 0.674418 0.738350
vn 0.000000 0.000000 0.000000
s off
f 55//1 6//1 22//1
f 96//1 3//1 205//1
f 15//2 13//2 32//2
f 5//1 21//1 35//1
f 132//3 123//3 3//3
f 124//4 8//4 129//4
f 67//1 12//1 10//1
f 16//2 24//2 102//2
f 64//3 3//3 9//3
f 65//1 11//1 19//1
f 73//2 16//2 74//2
f 11//1 9//1 99//1
f 58//3 1//3 13//3
f 157//5 5//5 27//5
f 79//6 18//6 20//6
f 4//3 10//3 29//3
f 97//1 107//1 121//1
f 61//2 8//2 79//2
f 85//5 22//5 24//5
f 71//2 15//2 86//2
f 18//2 8//2 33//2
f 34//5 33//5 49//5
f 156//7 27//7 25//7
f 31//3 25//3 41//3
f 36//2 32//2 52//2
f 27//1 35//1 51//1
f 125//3 4//3 26//3
f 23//2 15//2 36//2
f 20//5 18//5 33//5
f 10//1 12//1 30//1
f 21//5 23//5 36//5
f 12//1 20//1 34//1
f 13//3 1//3 25//3
f 166//5 194//5 38//5
f 59//2 7//2 92//2
f 53//1 5//1 37//1
f 14//2 16//2 101//2
f 44//8 42//8 45//8
f 41//8 43//8 48//8
f 44//7 46//7 50//7
f 48//7 43//7 51//7
f 29//1 30//1 45//1
f 30//1 34//1 50//1
f 26//3 29//3 45//3
f 33//2 28//2 49//2
f 25//1 27//1 41//1
f 35//5 36//5 52//5
f 32//2 31//2 48//2
f 28//2 26//2 44//2
f 5//1 53//1 83//1
f 53//1 54//1 83//1
f 54//1 55//1 84//1
f 125//3 130//3 62//3
f 130//3 131//3 63//3
f 131//3 132//3 64//3
f 11//1 65//1 70//1
f 65//1 66//1 69//1
f 66//1 67//1 68//1
f 4//3 62//3 68//3
f 62//3 63//3 69//3
f 63//3 64//3 70//3
f 12//1 67//1 20//1
f 67//1 66//1 82//1
f 66//1 65//1 80//1
f 15//2 71//2 13//2
f 71//2 72//2 76//2
f 72//2 73//2 75//2
f 2//3 56//3 74//3
f 56//3 57//3 75//3
f 57//3 58//3 76//3
f 17//5 77//5 80//5
f 77//5 78//5 81//5
f 78//9 79//9 82//9
f 7//2 59//2 17//2
f 59//2 60//2 77//2
f 60//2 61//2 78//2
f 21//5 83//5 86//5
f 83//6 84//6 87//6
f 84//10 85//10 88//10
f 16//2 73//2 24//2
f 73//2 72//2 88//2
f 72//2 71//2 87//2
f 155//5 168//5 89//5
f 168//5 167//5 90//5
f 167//5 166//5 91//5
f 8//2 61//2 40//2
f 61//2 60//2 94//2
f 60//2 59//2 93//2
f 6//1 55//1 91//1
f 55//1 54//1 90//1
f 54//1 53//1 89//1
f 182//1 215//1 114//1
f 108//2 98//2 122//2
f 215//1 207//1 113//1
f 181//5 182//5 118//5
f 137//5 108//5 122//5
f 95//2 216//2 204//2
f 22//11 17//11 105//11
f 17//5 19//5 104//5
f 9//3 3//3 96//3
f 6//7 7//7 22//7
f 24//5 22//5 105//5
f 128//5 39//5 108//5
f 19//1 11//1 100//1
f 2//3 14//3 101//3
f 119//4 117//4 111//4
f 112//4 110//4 138//4
f 110//4 112//4 114//4
f 111//4 109//4 115//4
f 114//4 112//4 117//4
f 111//4 116//4 120//4
f 111//7 121//7 162//7
f 214//11 181//11 119//11
f 207//3 183//3 110//3
f 213//5 214//5 119//5
f 152//2 191//2 115//2
f 191//2 213//2 116//2
f 216//3 152//3 115//3
f 123//2 136//2 175//2
f 209//3 159//3 123//3
f 160//4 124//4 129//4
f 8//5 124//5 126//5
f 28//7 126//7 127//7
f 163//3 125//3 127//3
f 92//5 39//5 128//5
f 163//3 210//3 130//3
f 210//3 211//3 131//3
f 211//3 209//3 132//3
f 40//5 94//5 133//5
f 94//5 93//5 134//5
f 93//5 92//5 135//5
f 212//5 137//5 139//5
f 136//2 153//2 208//2
f 164//5 128//5 137//5
f 58//3 57//3 150//3
f 151//3 150//3 211//3
f 106//5 105//5 214//5
f 158//7 2//7 206//7
f 38//5 194//5 148//5
f 2//2 95//2 206//2
f 144//5 164//5 194//5
f 102//2 106//2 191//2
f 159//3 158//3 165//3
f 161//5 180//5 168//5
f 109//4 197//4 193//4
f 183//1 96//1 170//1
f 160//5 157//5 156//5
f 104//1 100//1 215//1
f 107//5 148//5 162//5
f 110//1 183//1 147//1
f 180//5 187//5 167//5
f 5//4 157//4 37//4
f 140//7 154//7 171//7
f 204//2 192//2 220//2
f 99//3 96//3 183//3
f 57//3 56//3 149//3
f 187//5 144//5 166//5
f 216//2 109//2 192//2
f 188//3 165//3 154//3
f 174//7 156//7 195//7
f 1//3 58//3 151//3
f 157//4 160//4 161//4
f 208//2 172//2 217//2
f 56//3 2//3 158//3
f 165//1 158//1 190//1
f 1//3 196//3 195//3
f 138//4 110//4 176//4
f 194//5 164//5 212//5
f 234//3 236//3 229//3
f 196//3 163//3 141//3
f 154//1 165//1 198//1
f 147//1 170//1 202//1
f 150//3 149//3 209//3
f 101//2 102//2 152//2
f 105//11 103//11 214//11
f 235//3 219//3 178//3
f 95//3 101//3 152//3
f 3//7 123//7 175//7
f 103//5 104//5 182//5
f 186//3 171//3 193//3
f 100//1 99//1 207//1
f 196//3 151//3 210//3
f 142//4 138//4 143//4
f 148//5 212//5 189//5
f 171//1 198//1 225//1
f 149//3 158//3 159//3
f 135//5 128//5 164//5
f 123//3 159//3 188//3
f 129//5 133//5 180//5
f 124//5 160//5 174//5
f 133//5 134//5 187//5
f 153//7 140//7 186//7
f 134//5 135//5 144//5
f 136//3 188//3 140//3
f 126//7 174//7 141//7
f 172//3 186//3 143//3
f 197//4 142//4 193//4
f 145//12 199//12 230//12
f 173//5 176//5 199//5
f 193//1 171//1 146//1
f 175//2 235//2 185//2
f 170//1 205//1 219//1
f 226//3 233//3 231//3
f 228//3 218//3 220//3
f 200//12 184//12 232//12
f 190//5 206//5 221//5
f 223//13 221//13 179//13
f 176//1 234//1 199//1
f 228//1 190//1 223//1
f 177//5 193//5 184//5
f 219//1 205//1 222//1
f 192//2 177//2 227//2
f 198//1 190//1 228//1
f 206//2 204//2 218//2
f 205//5 175//5 224//5
f 201//3 169//3 236//3
f 218//3 228//3 203//3
f 222//13 224//13 185//13
f 225//3 220//3 227//3
f 193//1 226//1 184//1
f 176//1 147//1 201//1
f 219//3 235//3 217//3
f 146//3 227//3 233//3
f 175//2 208//2 235//2
f 233//2 177//2 231//2
f 202//3 217//3 169//3
f 236//2 173//2 229//2
f 172//2 173//2 169//2
f 206//2 218//2 179//2
f 85//1 55//1 22//1
f 170//1 96//1 205//1
f 13//2 31//2 32//2
f 27//1 5//1 35//1
f 64//3 132//3 3//3
f 8//4 40//4 129//4
f 68//1 67//1 10//1
f 24//2 106//2 102//2
f 70//3 64//3 9//3
f 80//1 65//1 19//1
f 16//2 14//2 74//2
f 100//1 11//1 99//1
f 76//3 58//3 13//3
f 156//5 157//5 27//5
f 82//6 79//6 20//6
f 26//3 4//3 29//3
f 111//1 97//1 121//1
f 8//2 18//2 79//2
f 88//5 85//5 24//5
f 15//2 23//2 86//2
f 8//2 28//2 33//2
f 50//5 34//5 49//5
f 195//7 156//7 25//7
f 47//3 31//3 41//3
f 32//2 48//2 52//2
f 43//1 27//1 51//1
f 127//3 125//3 26//3
f 15//2 32//2 36//2
f 34//5 20//5 33//5
f 29//1 10//1 30//1
f 35//5 21//5 36//5
f 30//1 12//1 34//1
f 31//3 13//3 25//3
f 91//5 166//5 38//5
f 7//2 39//2 92//2
f 89//1 53//1 37//1
f 16//2 102//2 101//2
f 46//8 44//8 45//8
f 47//8 41//8 48//8
f 49//7 44//7 50//7
f 52//7 48//7 51//7
f 30//1 46//1 45//1
f 46//1 30//1 50//1
f 42//3 26//3 45//3
f 28//2 44//2 49//2
f 27//1 43//1 41//1
f 51//5 35//5 52//5
f 31//2 47//2 48//2
f 26//2 42//2 44//2
f 21//1 5//1 83//1
f 54//1 84//1 83//1
f 55//1 85//1 84//1
f 4//3 125//3 62//3
f 62//3 130//3 63//3
f 63//3 131//3 64//3
f 9//1 11//1 70//1
f 70//1 65//1 69//1
f 69//1 66//1 68//1
f 10//3 4//3 68//3
f 68//3 62//3 69//3
f 69//3 63//3 70//3
f 67//1 82//1 20//1
f 66//1 81//1 82//1
f 81//1 66//1 80//1
f 71//2 76//2 13//2
f 72//2 75//2 76//2
f 73//2 74//2 75//2
f 14//3 2//3 74//3
f 74//3 56//3 75//3
f 75//3 57//3 76//3
f 19//5 17//5 80//5
f 80//5 77//5 81//5
f 81//9 78//9 82//9
f 59//2 77//2 17//2
f 60//2 78//2 77//2
f 61//2 79//2 78//2
f 23//5 21//5 86//5
f 86//6 83//6 87//6
f 87//10 84//10 88//10
f 73//2 88//2 24//2
f 72//2 87//2 88//2
f 71//2 86//2 87//2
f 37//5 155//5 89//5
f 89//5 168//5 90//5
f 90//5 167//5 91//5
f 61//2 94//2 40//2
f 60//2 93//2 94//2
f 59//2 92//2 93//2
f 38//1 6//1 91//1
f 91//1 55//1 90//1
f 90//1 54//1 89//1
f 118//1 182//1 114//1
f 98//2 112//2 122//2
f 114//1 215//1 113//1
f 117//5 181//5 118//5
f 139//5 137//5 122//5
f 216//2 192//2 204//2
f 17//11 103//11 105//11
f 103//5 17//5 104//5
f 99//3 9//3 96//3
f 7//7 17//7 22//7
f 106//5 24//5 105//5
f 137//5 128//5 108//5
f 104//1 19//1 100//1
f 95//3 2//3 101//3
f 117//4 112//4 111//4
f 112//4 138//4 142//4
f 111//4 112//4 142//4
f 109//4 111//4 142//4
f 197//14 109//14 142//14
f 113//4 110//4 114//4
f 116//4 111//4 115//4
f 118//4 114//4 117//4
f 119//4 111//4 120//4
f 112//7 111//7 122//7
f 111//7 162//7 122//7
f 162//14 189//14 122//14
f 189//14 139//14 122//14
f 181//11 117//11 119//11
f 113//3 207//3 110//3
f 120//5 213//5 119//5
f 191//2 116//2 115//2
f 213//2 120//2 116//2
f 109//3 216//3 115//3
f 136//2 208//2 175//2
f 132//3 209//3 123//3
f 161//4 160//4 129//4
f 28//5 8//5 126//5
f 26//7 28//7 127//7
f 141//3 163//3 127//3
f 135//5 92//5 128//5
f 125//3 163//3 130//3
f 130//3 210//3 131//3
f 131//3 211//3 132//3
f 129//5 40//5 133//5
f 133//5 94//5 134//5
f 134//5 93//5 135//5
f 189//5 212//5 139//5
f 153//2 172//2 208//2
f 212//5 164//5 137//5
f 151//3 58//3 150//3
f 210//3 151//3 211//3
f 213//5 106//5 214//5
f 190//7 158//7 206//7
f 107//5 38//5 148//5
f 95//2 204//2 206//2
f 166//5 144//5 194//5
f 106//2 213//2 191//2
f 188//3 159//3 165//3
f 155//5 161//5 168//5
f 177//4 109//4 193//4
f 147//1 183//1 170//1
f 174//5 160//5 156//5
f 182//1 104//1 215//1
f 121//5 107//5 162//5
f 176//1 110//1 147//1
f 168//5 180//5 167//5
f 157//4 155//4 37//4
f 186//7 140//7 171//7
f 192//2 227//2 220//2
f 207//3 99//3 183//3
f 150//3 57//3 149//3
f 167//5 187//5 166//5
f 109//2 177//2 192//2
f 140//3 188//3 154//3
f 141//7 174//7 195//7
f 196//3 1//3 151//3
f 155//4 157//4 161//4
f 172//2 169//2 217//2
f 149//3 56//3 158//3
f 198//1 165//1 190//1
f 25//3 1//3 195//3
f 173//4 138//4 176//4
f 148//5 194//5 212//5
f 230//3 234//3 229//3
f 195//3 196//3 141//3
f 171//1 154//1 198//1
f 201//1 147//1 202//1
f 211//3 150//3 209//3
f 102//2 191//2 152//2
f 103//11 181//11 214//11
f 185//3 235//3 178//3
f 216//3 95//3 152//3
f 205//7 3//7 175//7
f 181//5 103//5 182//5
f 143//3 186//3 193//3
f 215//1 100//1 207//1
f 163//3 196//3 210//3
f 138//4 173//4 143//4
f 162//5 148//5 189//5
f 146//1 171//1 225//1
f 209//3 149//3 159//3
f 144//5 135//5 164//5
f 136//3 123//3 188//3
f 161//5 129//5 180//5
f 126//5 124//5 174//5
f 180//5 133//5 187//5
f 172//7 153//7 186//7
f 187//5 134//5 144//5
f 153//3 136//3 140//3
f 127//7 126//7 141//7
f 173//3 172//3 143//3
f 142//4 143//4 193//4
f 229//12 145//12 230//12
f 145//5 173//5 199//5
f 226//1 193//1 146//1
f 224//2 175//2 185//2
f 202//1 170//1 219//1
f 232//3 226//3 231//3
f 225//3 228//3 220//3
f 231//12 200//12 232//12
f 223//5 190//5 221//5
f 203//13 223//13 179//13
f 234//1 230//1 199//1
f 203//1 228//1 223//1
f 200//5 177//5 184//5
f 178//1 219//1 222//1
f 177//2 233//2 227//2
f 225//1 198//1 228//1
f 204//2 220//2 218//2
f 222//5 205//5 224//5
f 234//3 201//3 236//3
f 179//3 218//3 203//3
f 178//13 222//13 185//13
f 146//3 225//3 227//3
f 226//1 232//1 184//1
f 234//1 176//1 201//1
f 202//3 219//3 217//3
f 226//3 146//3 233//3
f 208//2 217//2 235//2
f 177//2 200//2 231//2
f 201//3 202//3 169//3
f 173//2 145//2 229//2
f 173//2 236//2 169//2
f 221//2 206//2 179//2
